<?xml version="1.0" encoding="utf-8"?>
<!-- Generator: Adobe Illustrator 25.3.1, SVG Export Plug-In . SVG Version: 6.00 Build 0)  -->
<svg version="1.1" id="Layer_1" xmlns="http://www.w3.org/2000/svg" xmlns:xlink="http://www.w3.org/1999/xlink" x="0px" y="0px"
	 viewBox="0 0 720 320" style="enable-background:new 0 0 720 320;" xml:space="preserve">
<g>
	<g>
		<path d="M276.67,149.92l-4.42,32.73c-5.13,23.53-23.18,31.32-42.47,31.32c-11.5,0-24.24-2.65-34.86-6.9L211.91,87.1h24.77
			l-5.13,34.86c5.13-2.12,10.26-3.18,15.75-3.18c12.92,0.35,24.06,6.72,28.31,18.05c0.88,2.65,1.42,5.49,1.42,8.49
			C277.02,146.73,276.84,148.32,276.67,149.92z M236.85,195.21c5.13-1.42,9.73-4.78,10.62-10.26l4.78-35.21
			c0.18-5.13-3.54-8.32-8.32-9.73c-1.59-0.35-3.19-0.53-4.78-0.53c-0.88,0-1.95,0-2.83,0.18c-2.83,0.35-5.31,1.06-7.43,2.12
			l-7.08,52.38c1.95,1.06,4.25,1.59,7.08,1.77c0.53,0.18,1.06,0.18,1.59,0.18C232.61,196.1,234.73,195.74,236.85,195.21z"/>
		<path d="M287.64,195.57c-1.06-2.83-1.59-6.02-1.59-9.38c0-1.59,0.18-3.18,0.35-4.95l4.07-28.66c3.36-22.29,22.83-33.8,41.4-33.8
			c14.16,0,26.19,6.55,30.43,18.93c1.06,2.65,1.59,5.49,1.59,8.67c0,1.77-0.18,3.72-0.53,5.66c-1.95,12.74-10.26,20.7-20.7,24.77
			c-5.13,1.95-10.26,2.83-15.75,2.83h-0.53c-5.66-0.18-10.79-1.06-15.22-2.83l-0.71,4.42c-0.88,7.43,5.31,11.15,13.09,11.15
			c6.55,0,13.8-2.65,17.87-7.43l13.98,10.09c-11.32,13.98-24.95,18.93-36.98,18.93C304.63,213.97,292.24,207.77,287.64,195.57z
			 M340.19,151.86c0.18-0.53,0.18-1.06,0.18-1.59c0-1.24-0.18-2.3-0.71-3.18c-1.77-4.07-6.19-5.84-10.79-5.84
			c-6.37,0-13.45,4.6-14.33,11.15l-1.06,7.25c3.89,1.24,7.96,1.95,12.39,1.95C332.23,161.59,339.48,158.05,340.19,151.86z"/>
		<path d="M364.96,233.79l14.33-12.92c3.54,4.07,10.26,6.19,16.63,6.19c9.2,0,16.81-3.89,18.76-15.39c-4.95,1.42-9.73,2.3-14.51,2.3
			c-13.45,0-24.42-5.66-28.31-16.63c-0.88-2.48-1.42-5.13-1.42-8.14c0-1.59,0.18-3.36,0.35-4.96l5.13-34.68
			c3.36-22.65,22.65-30.79,42.47-30.79h1.42c5.84,0,11.32,0.71,16.81,2.12c5.84,1.42,10.97,3.36,15.39,5.66l-12.21,84.22
			c-4.6,29.55-22.83,38.04-42.64,38.04C384.43,248.83,372.04,243.69,364.96,233.79z M399.64,149.03l-4.95,33.62
			c-0.18,0.71-0.18,1.42-0.18,2.12c0,3.01,1.06,5.31,3.18,6.72c2.65,1.77,6.02,2.65,10.08,2.65c3.72,0,7.08-0.71,10.09-2.3
			l7.61-52.55c-2.48-1.24-5.49-1.77-9.02-1.77C407.96,137.53,400.88,141.25,399.64,149.03z"/>
		<path d="M454.32,233.79l14.33-12.92c3.54,4.07,10.26,6.19,16.63,6.19c9.2,0,16.81-3.89,18.76-15.39c-4.95,1.42-9.73,2.3-14.51,2.3
			c-13.45,0-24.42-5.66-28.31-16.63c-0.88-2.48-1.42-5.13-1.42-8.14c0-1.59,0.18-3.36,0.35-4.96l5.13-34.68
			c3.36-22.65,22.65-30.79,42.47-30.79h1.42c5.84,0,11.32,0.71,16.81,2.12c5.84,1.42,10.97,3.36,15.39,5.66l-12.21,84.22
			c-4.6,29.55-22.83,38.04-42.64,38.04C473.78,248.83,461.4,243.69,454.32,233.79z M489,149.03l-4.95,33.62
			c-0.18,0.71-0.18,1.42-0.18,2.12c0,3.01,1.06,5.31,3.18,6.72c2.65,1.77,6.02,2.65,10.09,2.65c3.72,0,7.08-0.71,10.09-2.3
			l7.61-52.55c-2.48-1.24-5.49-1.77-9.02-1.77C497.32,137.53,490.24,141.25,489,149.03z"/>
		<path d="M550.75,195.92c-0.88-2.65-1.24-5.49-1.24-8.49c0-1.59,0.18-3.36,0.35-5.31l4.25-30.08
			c3.36-24.77,23.71-33.26,43.53-33.26c11.32,0,23.89,3.89,33.62,9.02l-11.5,84.4h-20.17l-2.12-7.43c-4.96,5.84-12.56,9.2-19.11,9.2
			C565.79,213.97,554.65,207.6,550.75,195.92z M595.52,140.36c-1.95,0-3.89,0.18-5.84,0.71c-5.49,1.42-10.26,4.96-10.97,10.79
			l-4.07,29.02c-0.18,0.53-0.18,1.06-0.18,1.59c0,2.65,1.06,4.78,3.01,6.37c2.3,1.77,5.13,2.65,8.32,2.65
			c5.49,0,9.55-1.42,12.92-3.36l6.37-45.47c-1.95-1.24-4.25-1.95-7.08-2.3H595.52z"/>
		<path d="M659.22,212.91c-9.38-3.01-15.04-9.55-16.99-18.76c-0.53-2.65-0.88-5.31-0.88-7.96c0-1.95,0.18-4.07,0.53-6.19
			l13.27-93.07h24.59L666.48,180c-0.18,0.71-0.18,1.42-0.18,2.12c0,2.65,0.88,4.78,2.48,6.72c2.12,2.48,5.66,3.72,10.79,3.72
			l-3.01,21.06c-2.83,0.53-5.49,0.71-7.79,0.71C665.24,214.32,662.05,213.79,659.22,212.91z"/>
	</g>
	<path d="M45.93,142.44c9.7-9.7,25.43-9.7,35.13,0L98.63,160l-17.56,17.56c-9.7,9.7-25.43,9.7-35.13,0
		C36.23,167.86,36.23,152.14,45.93,142.44z M82.1,160l-9.3-9.3c-5.14-5.14-13.46-5.14-18.6,0c-5.14,5.14-5.14,13.46,0,18.6
		c5.14,5.14,13.46,5.14,18.6,0L82.1,160z M89.33,185.83l17.56-17.56l17.56,17.56c9.7,9.7,9.7,25.43,0,35.13
		c-9.7,9.7-25.43,9.7-35.13,0C79.63,211.26,79.63,195.53,89.33,185.83z M97.59,194.09c-5.14,5.14-5.14,13.46,0,18.6
		c5.14,5.14,13.46,5.14,18.6,0c5.14-5.14,5.14-13.46,0-18.6l-9.3-9.3L97.59,194.09z M89.33,99.04c9.7-9.7,25.43-9.7,35.13,0
		c9.7,9.7,9.7,25.43,0,35.13l-17.56,17.56l-17.56-17.56C79.63,124.47,79.63,108.74,89.33,99.04z M116.19,125.91
		c5.14-5.14,5.14-13.46,0-18.6c-5.14-5.14-13.46-5.14-18.6,0s-5.14,13.46,0,18.6l9.3,9.3L116.19,125.91z M115.16,160l17.56-17.56
		c9.7-9.7,25.43-9.7,35.13,0s9.7,25.43,0,35.13s-25.43,9.7-35.13,0L115.16,160z M131.69,160l9.3,9.3c5.14,5.14,13.46,5.14,18.6,0
		c5.14-5.14,5.14-13.46,0-18.6c-5.14-5.14-13.46-5.14-18.6,0L131.69,160z"/>
</g>
<g>
</g>
<g>
</g>
<g>
</g>
<g>
</g>
<g>
</g>
<g>
</g>
</svg>
